<?xml version="1.0" encoding="UTF-8" standalone="no"?>
<!-- Created with Inkscape (http://www.inkscape.org/) -->

<svg
   version="1.1"
   id="svg2"
   xml:space="preserve"
   width="3466.6667"
   height="2666.6667"
   viewBox="0 0 3466.6667 2666.6667"
   sodipodi:docname="24644976_Tiny people standing near stop sign flat vector illustration.eps"
   xmlns:inkscape="http://www.inkscape.org/namespaces/inkscape"
   xmlns:sodipodi="http://sodipodi.sourceforge.net/DTD/sodipodi-0.dtd"
   xmlns="http://www.w3.org/2000/svg"
   xmlns:svg="http://www.w3.org/2000/svg"><defs
     id="defs6" /><sodipodi:namedview
     id="namedview4"
     pagecolor="#ffffff"
     bordercolor="#666666"
     borderopacity="1.0"
     inkscape:pageshadow="2"
     inkscape:pageopacity="0.0"
     inkscape:pagecheckerboard="0" /><g
     id="g8"
     inkscape:groupmode="layer"
     inkscape:label="ink_ext_XXXXXX"
     transform="matrix(1.3333333,0,0,-1.3333333,0,2666.6667)"><g
       id="g10"
       transform="scale(0.1)"><path
         d="M 26000,0 H 0 V 20000 H 26000 V 0"
         style="fill:#ffffff;fill-opacity:1;fill-rule:nonzero;stroke:none"
         id="path12" /><path
         d="m 12406.6,18802.3 c -131.1,70.7 -267.6,119.1 -405.8,143.7 l 19.7,110.9 c 150,-26.7 297.9,-79 439.5,-155.5 z m -1229.4,-0.1 -60.6,94.9 c 133.3,85.4 280.1,140.9 436.5,165 l 17.1,-111.3 c -140.8,-21.7 -273,-71.7 -393,-148.6 z m 1886,-580 c -98.3,123.4 -199.8,232.8 -301.6,324.9 l 75.5,83.6 c 106.3,-96.3 212,-210.1 314.1,-338.2 z m -2430.9,-86.1 -100.9,49.9 c 73.8,149.9 155.8,282.4 243.5,393.9 l 88.4,-69.7 c -82.9,-105.4 -160.6,-231.2 -231,-374.1 z m 2913.5,-668.6 c -74,139.5 -149.6,270.5 -224.7,389.3 l 95.1,60.3 c 76.6,-121.2 153.7,-254.7 229,-396.8 z m -3208.4,-175.4 -109.2,27.3 c 39.2,157.3 82.5,305.5 128.6,440.4 l 106.5,-36.4 c -45.1,-132 -87.5,-277.1 -125.9,-431.3 z m 3589.4,-643 c -60.4,145.6 -121.4,284.9 -181.1,414.1 l 102.1,47.3 c 60.4,-130.5 121.9,-271.2 182.9,-418.2 z m -3758.6,-244 -111.3,16.1 c 22.7,157.7 47.8,309.4 74.3,450.9 l 110.6,-20.9 c -26.3,-139.8 -51,-289.9 -73.6,-446.1 z m 4082.4,-601.3 c -54.3,152 -105.6,290.9 -156.6,424.6 l 105.1,40.2 c 51.3,-134.5 102.8,-274.1 157.5,-426.8 z m -4184.7,-299 -112.11,9.9 c 14.02,158.1 29.28,310.8 45.34,453.8 l 111.87,-12.6 c -16,-142.2 -31.2,-293.9 -45.1,-451.1 z m 10080.4,-190.1 c -139.3,58.9 -280.4,95.3 -419.3,108.3 l 10.5,112.2 c 150.3,-14.1 302.6,-53.3 452.6,-116.7 z m -1227.8,-138 -64.4,92.3 c 138.3,96.9 278.1,168.7 415.4,213.4 l 34.8,-107.2 c -126.7,-41.2 -256.5,-108 -385.8,-198.5 z m -4373,-231.5 c -55.9,167.6 -102.1,304.3 -145.1,430.1 l 106.4,36.6 c 43.2,-126.1 89.4,-263.1 145.4,-431 z m 6314.5,-140.3 c -108.3,111.1 -220.5,209.2 -333.4,291.5 l 66.3,91.1 c 118,-86.1 234.9,-188.3 347.7,-303.9 z M 5493.67,14622.8 c -140.41,69.9 -278.53,114.6 -410.49,132.7 l 15.27,111.6 c 144.12,-19.8 293.96,-68 445.35,-143.5 z m 4506.73,-23.6 -112.33,6.7 c 9.74,163.7 19.41,312.5 29.57,454.6 l 112.26,-8 c -10.1,-141.7 -19.8,-290 -29.5,-453.3 z m 8283.5,-44.3 -87.4,70.9 c 105.5,130.4 205.5,242.6 305.7,343 l 79.6,-79.7 c -97.4,-97.6 -194.9,-206.9 -297.9,-334.2 z m -14003.99,-34.5 -68.25,89.6 c 134.38,102.6 274.23,176.7 415.68,220 l 32.93,-107.7 c -128.65,-39.5 -256.62,-107.4 -380.36,-201.9 z m 17120.89,-424.7 c -80.7,131.7 -165.2,256.3 -251.3,370.3 l 89.7,68 c 88.3,-116.9 175,-244.6 257.5,-379.4 z m -15199,-4.8 c -115.01,112.1 -228.09,211.1 -336.11,294.4 l 68.62,89.2 c 111.46,-85.8 227.87,-187.7 345.99,-302.9 z m 8632.2,-7.9 c -51.6,151.4 -102.2,302.9 -144.9,431.1 l 106.7,35.7 c 42.7,-128.1 93.2,-279.3 144.7,-430.4 z m -11131.8,-229.2 -94.84,60.6 c 88.42,138.7 179.59,263.9 270.98,372.2 l 85.96,-72.7 c -88.17,-104.5 -176.36,-225.6 -262.1,-360.1 z m 14055.4,-31.8 -93.8,62.1 c 94,142.5 178.1,265.7 257,376.7 l 91.7,-65.4 c -78.2,-109.9 -161.6,-232 -254.9,-373.4 z m -7805.56,-130.6 -112.38,5.7 c 7.58,150.5 15.11,301.1 23.14,454.3 l 112.37,-5.9 c -8.03,-153.1 -15.56,-303.6 -23.13,-454.1 z m -3150.3,-272 c -102.11,126.9 -197.14,239.8 -290.55,345.3 l 84.18,74.7 c 94.59,-106.7 190.76,-221 294,-349.3 z m 15007.66,-123 c -60.5,141.1 -124.5,278.2 -190.2,407.4 l 100.3,51.1 c 66.8,-131.4 131.9,-270.7 193.3,-414 z m -6664.1,-70.2 c -51,128 -103.7,267.6 -161,426.9 l 105.8,38.2 c 57,-158.1 109.2,-296.6 159.7,-423.4 z m 2118.8,-166.6 -94,61.9 c 80,121.7 162.6,250.7 246.2,380.9 l 94.6,-60.9 c -83.8,-130.6 -166.4,-259.7 -246.8,-381.9 z m -13979.44,0 -102.94,45.4 c 61.77,140.1 127.6,277.7 197.54,412.1 l 99.78,-52 c -68.83,-132.4 -133.59,-267.7 -194.38,-405.5 z m 6617.37,-277.4 -112.29,7.3 c 8.53,132 17.21,280.3 26.53,453.5 l 112.36,-6 c -9.34,-173.6 -18.05,-322.4 -26.6,-454.8 z m -2552.46,-83.7 c -102.95,140.9 -188.74,256.5 -270.01,363.9 l 89.71,68 c 81.64,-107.9 167.79,-224 271.12,-365.4 z m 14769.13,-247.8 c -45.3,146 -93.7,289.7 -143.7,427.1 l 105.7,38.6 c 50.7,-139.1 99.6,-284.5 145.5,-432.2 z m -6571.7,-49.9 c -72.8,112.5 -145,245 -220.6,405 l 101.7,48.2 c 73.5,-155.5 143.3,-283.6 213.4,-391.9 z m 1171.3,-77.4 -82.7,76.4 c 85.3,92.5 176.8,206.6 279.6,348.9 l 91.2,-66.1 c -105.5,-145.9 -199.8,-263.4 -288.1,-359.2 z M 2972.28,12216 l -107.61,32.9 c 44.72,146.4 93.76,292 145.8,432.7 l 105.52,-39.1 c -51.28,-138.7 -99.63,-282.2 -143.71,-426.5 z m 13150.22,-242.8 c -87.6,0 -173.6,26.2 -255.5,78 l 60,95.3 c 123.1,-77.8 244.2,-78 374.9,-16 l 48.4,-101.6 c -77.3,-37 -153.9,-55.7 -227.8,-55.7 z m -8238.17,-9.2 c -91.47,123.7 -186.34,254.4 -268.09,367.2 l 91.09,66.2 c 81.59,-112.7 176.27,-243.1 267.44,-366.4 z m 1936,-91.6 -111.61,14.4 c 17.28,134.5 32.78,281.7 47.35,450.2 l 112.11,-9.7 c -14.72,-170.1 -30.37,-318.9 -47.85,-454.9 z m 12529.57,-293.6 c -33.3,148.8 -69.3,296.3 -106.8,438.4 l 108.7,28.8 c 38,-143.5 74.3,-292.4 107.9,-442.6 z m -19594.11,-237 -110.47,21.4 c 29.15,150.4 62.13,300.3 98.03,445.7 l 109.24,-27.1 c -35.45,-143.5 -68.02,-291.5 -96.8,-440 z m 5697,-92.4 c -89.64,99.9 -185.44,214.9 -292.86,351.6 l 88.42,69.7 c 105.91,-134.8 200.17,-247.9 288.16,-346.1 z m 1146.76,-274.1 -100.21,51.2 c 51.51,101 97.04,241.2 135.35,416.6 l 109.92,-24.1 c -40.92,-187.4 -88.37,-332.6 -145.06,-443.7 z m -390.4,-268 c -156.36,24.6 -269.45,95.9 -426.12,219 l 71.13,87.3 c 137.24,-107.6 236.37,-172.1 366.98,-194.3 z m 13308.05,-15.9 c -23.4,150.3 -49.1,300.1 -76.4,445.1 l 110.6,20.9 c 27.5,-146.2 53.4,-297.2 77,-448.7 z m -19891.36,-241.8 -111.96,11.3 c 15.29,152.3 33.92,304.6 55.39,452.6 l 111.36,-16.2 c -21.24,-146.4 -39.67,-297 -54.79,-447.7 z M 22630.8,9794.8 c -15,151.3 -32,302.4 -50.6,449.1 l 111.7,14.2 c 18.6,-147.8 35.7,-299.9 50.9,-452.2 z M 2572.37,9549 l -112.5,2.3 c 3.13,152.9 9.17,306.1 17.96,455.2 l 112.34,-6.6 c -8.71,-147.7 -14.7,-299.4 -17.8,-450.9 z M 22698.1,8893.1 c -7.7,151.3 -17.3,303.2 -28.3,451.3 l 112.3,8.3 c 11,-149 20.6,-301.7 28.4,-453.9 z M 2473.5,8640.6 c -7.46,152.5 -12.41,305.6 -14.71,455.1 l 112.51,1.7 c 2.28,-148.2 7.19,-300.1 14.59,-451.3 z m 20251.2,-651.7 c -1.3,151.5 -4.2,303.7 -8.5,452.3 l 112.4,3.3 c 4.4,-149.4 7.3,-302.3 8.6,-454.6 z m -20178.29,-256 c -16.78,151.6 -31.38,304.1 -43.4,453.2 l 112.16,9.1 c 11.94,-148 26.43,-299.4 43.08,-449.9 z m 20281.29,-652.2 -112.5,3.3 c 4.4,151.4 7.5,303.6 9,452.4 l 112.6,-1.2 c -1.6,-149.4 -4.7,-302.4 -9.1,-454.5 z M 2671.73,6831.2 c -25.02,150.1 -48.19,301.5 -68.85,449.9 l 111.44,15.6 c 20.53,-147.5 43.55,-297.8 68.4,-447 z m 20113.87,-658.5 -112.3,7.1 c 9.6,150.8 17.9,302.8 24.8,452 l 112.4,-5.3 c -6.9,-149.7 -15.3,-302.4 -24.9,-453.8 z M 2844.28,5937.6 c -32.5,148.3 -63.42,298.2 -91.91,445.7 l 110.48,21.4 c 28.31,-146.6 59.05,-295.6 91.34,-443 z M 22714,5266.7 l -112,10.6 c 14.2,150.8 27.4,302.6 39.2,451 l 112.1,-8.9 c -11.8,-149 -25,-301.3 -39.3,-452.7 z M 3060.63,5053.6 c -39.38,145.6 -77.58,293.8 -113.53,440.7 l 109.29,26.8 c 35.74,-146 73.7,-293.3 112.85,-438 z m 19554.77,-690.2 -111.7,13.8 c 18.6,150.2 36.2,301.5 52.4,449.7 l 111.8,-12.2 c -16.2,-148.7 -33.9,-300.6 -52.5,-451.3 z M 3320.15,4181.1 c -46.01,141.1 -91.53,287.4 -135.29,434.7 l 107.85,32.1 c 43.48,-146.3 88.7,-291.6 134.41,-431.8 l -106.97,-35"
         style="fill:#b3d2ff;fill-opacity:1;fill-rule:nonzero;stroke:none"
         id="path14" /><path
         d="m 5464.44,3545.1 c 0,0 -2426.65,6927.4 -454.44,8564.9 1318.23,1094.5 2401.57,-892.1 4069.29,384.3 1484.71,1136.4 1012.71,4593.6 3380.71,5071.5 2662.3,537.2 3248.5,-5911 5433.4,-5029.6 2651.2,1069.4 5288.4,-1101.6 3009.4,-9005.2 l -15438.36,14.1"
         style="fill:#bad2f4;fill-opacity:1;fill-rule:nonzero;stroke:none"
         id="path16" /><path
         d="m 23328.5,5971.2 c -933.7,144.7 -781.4,-1163.1 -2112.4,-1163.1 -1217,0 -1606.3,4980.4 -2491.7,3556.7 C 14185.1,1066.2 16821,11468.7 13211,11600.9 11578.6,11660.6 10490.9,9840.2 10089.8,6617.2 9508.35,3703.4 8159.93,8839.6 6772.25,8362 5890.32,8058.5 5991.32,4808.1 4774.37,4808.1 3443.34,4808.1 3595.72,6115.9 2661.94,5971.2 1656.58,5815.3 1356.3,3500.5 1356.3,3500.5 h 23277.9 c 0,0 -300.3,2314.8 -1305.7,2470.7"
         style="fill:#c6dcf7;fill-opacity:1;fill-rule:nonzero;stroke:none"
         id="path18" /><path
         d="m 22501.6,4555.5 c -859,61.8 -718.9,-496.6 -1943.4,-496.6 -1119.5,0 -1088.8,1251.5 -1838,1517.5 -1379.7,489.9 -2517.1,-1989.3 -3052,-745 -1016,3301.4 -3979,4957.1 -5345.9,0 -534.92,-1244.3 -1785.79,975.9 -3052.06,745 -779.44,-142.1 -718.44,-1517.5 -1838,-1517.5 -1224.52,0 -1084.34,558.4 -1943.38,496.6 -924.91,-66.5 -1201.17,-1055 -1201.17,-1055 H 23702.8 c 0,0 -276.3,988.5 -1201.2,1055"
         style="fill:#d2e5f7;fill-opacity:1;fill-rule:nonzero;stroke:none"
         id="path20" /><path
         d="m 1356.3,3500.5 c 0,0 -146.01,-594.6 530.57,-743.5 C 2812.29,2553.3 8244.39,2018.3 6924.74,1611.7 6179.8,1382.2 7305.03,1070.5 10933.4,955.699 14561.9,841 20787.9,1290.6 18694.2,1956 c -2093.7,665.3 6459.6,160.6 5940,1544.5 H 1356.3"
         style="fill:#bad2f4;fill-opacity:1;fill-rule:nonzero;stroke:none"
         id="path22" /><path
         d="m 18930,10000 c 0,-3275 -2655,-5930 -5930,-5930 -3275.05,0 -5930,2655 -5930,5930 0,3275.1 2654.95,5930 5930,5930 3275,0 5930,-2654.9 5930,-5930"
         style="fill:#eb5648;fill-opacity:1;fill-rule:nonzero;stroke:none"
         id="path24" /><path
         d="m 18480,10000 c 0,-3026.5 -2453.5,-5480 -5480,-5480 -3026.52,0 -5480,2453.5 -5480,5480 0,3026.5 2453.48,5480 5480,5480 3026.5,0 5480,-2453.5 5480,-5480"
         style="fill:#ffffff;fill-opacity:1;fill-rule:nonzero;stroke:none"
         id="path26" /><path
         d="m 18090,10000 c 0,-2811.1 -2278.9,-5090 -5090,-5090 -2811.1,0 -5090,2278.9 -5090,5090 0,2811.1 2278.9,5090 5090,5090 2811.1,0 5090,-2278.9 5090,-5090"
         style="fill:#eb5648;fill-opacity:1;fill-rule:nonzero;stroke:none"
         id="path28" /><path
         d="m 15587.8,10341.5 c -219,117.5 -491.8,35.3 -609.3,-183.7 l -422.6,-787.1 c -69.3,127.1 -151.9,245.9 -245.9,354.5 V 12605 c 0,207.1 -167.9,375 -375,375 -207.2,0 -375,-167.9 -375,-375 v -2337.9 c -58.2,24.1 -117.6,45.7 -178.4,64.3 V 13225 c 0,207.1 -167.9,375 -375,375 -207.1,0 -375,-167.9 -375,-375 v -2811.2 c -60.2,-4.7 -119.7,-12.1 -178.3,-22 V 12765 c 0,207.1 -167.9,375 -375,375 -207.1,0 -375,-167.9 -375,-375 v -2663.8 c -61.9,-39.9 -121.4,-83.1 -178.3,-129.3 V 11820 c 0,207.1 -167.9,375 -375,375 -207.1,0 -375,-167.9 -375,-375 V 8530 c 0,-22.3 2,-44 5.7,-65.2 -0.5,-18.2 -0.7,-36.5 -0.7,-54.8 0,-1110.1 899.9,-2010 2010,-2010 833.3,0 1548.2,507.2 1852.9,1229.8 l 1128.5,2102.4 c 117.6,218.9 35.4,491.7 -183.6,609.3"
         style="fill:#ffffff;fill-opacity:1;fill-rule:nonzero;stroke:none"
         id="path30" /><path
         d="m 16927.6,16941.2 v -915.7 c -13.1,-75.1 -78.7,-132.2 -157.6,-132.2 -78.9,0 -144.5,57.1 -157.6,132.2 v 915.7 c 0,87.1 70.5,157.6 157.6,157.6 87.1,0 157.6,-70.5 157.6,-157.6"
         style="fill:#8fb3f2;fill-opacity:1;fill-rule:nonzero;stroke:none"
         id="path32" /><path
         d="m 16930,15603.3 c 0,-88.4 -71.6,-160 -160,-160 -88.4,0 -160,71.6 -160,160 0,88.3 71.6,160 160,160 88.4,0 160,-71.7 160,-160"
         style="fill:#8fb3f2;fill-opacity:1;fill-rule:nonzero;stroke:none"
         id="path34" /><path
         d="m 4370,11965 c 0,113.4 33.11,219.1 89.98,308.2 l 793.26,-793.2 c -89.16,-56.9 -194.87,-90 -308.24,-90 -317.06,0 -575,257.9 -575,575 z m 1150,0 c 0,-113.4 -33.11,-219.1 -89.98,-308.2 l -793.26,793.2 c 89.16,56.9 194.87,90 308.24,90 317.06,0 575,-257.9 575,-575 z m 17.34,-573.4 c 143.86,148.6 232.66,350.8 232.66,573.4 0,454.9 -370.09,825 -825,825 -222.64,0 -424.82,-88.8 -573.38,-232.6 -3.45,-2.8 -6.8,-5.8 -10.01,-9 -3.2,-3.2 -6.17,-6.6 -8.95,-10 C 4208.8,12389.8 4120,12187.6 4120,11965 c 0,-454.9 370.09,-825 825,-825 222.64,0 424.82,88.8 573.38,232.7 3.45,2.7 6.8,5.7 10.01,8.9 3.2,3.2 6.17,6.6 8.95,10"
         style="fill:#8fb3f2;fill-opacity:1;fill-rule:nonzero;stroke:none"
         id="path36" /><path
         d="m 19750,12535 c 0,113.4 33.1,219.1 90,308.2 l 793.2,-793.2 c -89.1,-56.9 -194.8,-90 -308.2,-90 -317.1,0 -575,257.9 -575,575 z m 1150,0 c 0,-113.4 -33.1,-219.1 -90,-308.2 l -793.2,793.2 c 89.1,56.9 194.8,90 308.2,90 317.1,0 575,-257.9 575,-575 z m 17.4,-573.4 c 143.8,148.6 232.6,350.8 232.6,573.4 0,454.9 -370.1,825 -825,825 -222.6,0 -424.8,-88.8 -573.4,-232.6 -3.4,-2.8 -6.8,-5.8 -10,-9 -3.2,-3.2 -6.2,-6.6 -9,-10 -143.8,-148.6 -232.6,-350.8 -232.6,-573.4 0,-454.9 370.1,-825 825,-825 222.6,0 424.8,88.8 573.4,232.6 3.4,2.8 6.8,5.8 10,9 3.2,3.2 6.2,6.6 9,10"
         style="fill:#f49f9f;fill-opacity:1;fill-rule:nonzero;stroke:none"
         id="path38" /><path
         d="m 8136.96,15790 430.81,430.8 c 61.57,61.5 61.57,161.3 0,222.9 -61.55,61.6 -161.35,61.6 -222.92,0 l -430.81,-430.8 -430.81,430.8 c -61.55,61.6 -161.37,61.6 -222.92,0 -61.56,-61.6 -61.56,-161.4 0,-222.9 l 430.81,-430.8 -430.81,-430.8 c -61.56,-61.6 -61.56,-161.4 0,-223 30.78,-30.8 71.11,-46.1 111.46,-46.1 40.34,0 80.69,15.4 111.46,46.1 l 430.81,430.8 430.81,-430.8 c 30.78,-30.8 71.12,-46.1 111.46,-46.1 40.34,0 80.69,15.3 111.46,46.1 61.57,61.6 61.57,161.4 0,223 l -430.81,430.8"
         style="fill:#ffd2d2;fill-opacity:1;fill-rule:nonzero;stroke:none"
         id="path40" /><path
         d="M 18765.5,8791.1 C 18356.1,8437.1 17745.3,8325 17292,8669.9 v 0.5 c -134.9,98.7 -271.2,257.4 -365.9,423.5 l 111.3,180.4 c 883.7,-545.1 1233.5,385.1 1952.1,457.6 l -143.8,-210 c 0,0 -67.7,-716.2 -80.2,-730.8"
         style="fill:#9358e0;fill-opacity:1;fill-rule:nonzero;stroke:none"
         id="path42" /><path
         d="m 19579.2,2580.5 13.5,7.1 c 0,-9.5 11.7,-42.3 21.1,-42.3 l 398.8,-8.2 c 9.4,0 15.2,17.8 15.2,27.2 l 34,9.8 c 0,59.7 -4.9,81.3 -31.3,127.5 -96.9,128.9 18.8,705.1 15.5,855.6 23.9,41.2 -419.9,8.9 -426.1,18.6 -10,0 -17.8,-8.5 -17,-18.4 l 52.2,-658.4 c 23.4,-125.1 -72.5,-200.6 -75.9,-318.5"
         style="fill:#f99370;fill-opacity:1;fill-rule:nonzero;stroke:none"
         id="path44" /><path
         d="m 17850.8,2523.1 h 794.2 c 69.4,2.8 68.8,73.5 56,128.4 -43.7,197.6 33.6,651.5 47.9,854.7 3.9,37.3 -25.3,69.6 -62.8,69.6 h -350.5 c -38,0 -67.4,-33.3 -62.6,-71 l 63.7,-508.3 c 34.6,-220.8 -228.8,-262.9 -378.9,-287.3 -98.9,-7.2 -264.3,-142.1 -107,-186.1"
         style="fill:#f99370;fill-opacity:1;fill-rule:nonzero;stroke:none"
         id="path46" /><path
         d="m 18731.3,2605.5 c -2.1,-38.9 -21.5,-83.3 -66.6,-82.4 h -823.8 c -194.3,72.1 84.9,329.9 465.3,328.4 154.6,-42.5 381.9,-12.2 381.9,-12.2 0,0 47.1,-69.9 43.2,-233.8"
         style="fill:#103663;fill-opacity:1;fill-rule:nonzero;stroke:none"
         id="path48" /><path
         d="m 19998.6,2523.1 h -352.1 c -171.6,23.5 -49.2,326.6 176,328.9 226.4,2.3 347.6,-305.8 176.1,-328.9"
         style="fill:#103663;fill-opacity:1;fill-rule:nonzero;stroke:none"
         id="path50" /><path
         d="m 18037.3,2634.6 c 12.1,-0.2 21,12.9 16.2,24.1 -37.6,92.7 -107.7,121.2 -110.7,122.4 -20.9,8.6 -34.1,-24.4 -12.9,-32.5 2.8,-1.2 59.6,-25.2 91.2,-103 2.7,-6.8 9.3,-11 16.2,-11"
         style="fill:#e8c0a6;fill-opacity:1;fill-rule:nonzero;stroke:none"
         id="path52" /><path
         d="m 18173.3,2651 c 11.6,-0.1 20.4,11.7 16.7,22.7 -30.7,116.6 -181.8,204 -141,122.4 1.4,-0.8 79.9,-43.1 107.6,-132.7 2.3,-7.5 9.3,-12.4 16.7,-12.4"
         style="fill:#e8c0a6;fill-opacity:1;fill-rule:nonzero;stroke:none"
         id="path54" /><path
         d="m 18328.1,2670.1 c 11.8,-0.2 20.7,12.1 16.6,23.2 -36.2,116 -173.5,219.7 -142.1,134.1 0.8,-0.5 76.3,-51.6 109,-145.6 2.5,-7.2 9.3,-11.7 16.5,-11.7"
         style="fill:#e8c0a6;fill-opacity:1;fill-rule:nonzero;stroke:none"
         id="path56" /><path
         d="m 19948.8,2747.3 c 17.1,-0.6 24.3,24.3 8.9,32.6 -118.1,69.1 -265.5,3.7 -271.7,0.9 -20.7,-9.1 -6.2,-41.6 14.4,-31.9 1.4,4.4 150,57.7 248.4,-1.6"
         style="fill:#e8c0a6;fill-opacity:1;fill-rule:nonzero;stroke:none"
         id="path58" /><path
         d="m 17783.2,2605.5 h 948.1 c -3.5,-28.9 -11.5,-57 -26,-82.4 h -864.4 c -42.6,0 -72.8,42.6 -57.7,82.4"
         style="fill:#0f2e54;fill-opacity:1;fill-rule:nonzero;stroke:none"
         id="path60" /><path
         d="m 19998.6,2523.1 h -352.1 c -44.8,0 -80.8,37.7 -78,82.4 h 508.2 c 2.8,-44.7 -33.3,-82.4 -78.1,-82.4"
         style="fill:#0f2e54;fill-opacity:1;fill-rule:nonzero;stroke:none"
         id="path62" /><path
         d="m 18879.1,10638.2 c 0,0 -4.1,257.4 228.6,303.1 l 121.9,-126.6 -350.5,-176.5"
         style="fill:#8c4225;fill-opacity:1;fill-rule:nonzero;stroke:none"
         id="path64" /><path
         d="m 20101.5,2972.5 c 0,0 -375.5,-91.3 -569,6.8 -100.7,631.4 -380.2,2389.8 -477.6,3594.7 -3.7,-70.2 -208.3,-2903.8 -247.2,-3594.7 -133.6,-44.7 -402.2,-98.7 -552.5,9.6 -67.5,727.4 -284.3,3122.1 42.3,5078 0,0 894.9,-99.6 1593.9,111.6 192.3,-620.4 243.3,-4461.5 210.1,-5206"
         style="fill:#1d3f70;fill-opacity:1;fill-rule:nonzero;stroke:none"
         id="path66" /><path
         d="m 18399.7,3049.3 c -91.8,2090.4 118.8,3888.3 87.2,3909.8 -55.2,-4.5 -266.9,-1818.4 -87.2,-3909.8"
         style="fill:#163356;fill-opacity:1;fill-rule:nonzero;stroke:none"
         id="path68" /><path
         d="m 19806,3049.3 c -36.4,2148.1 -355.6,4182.7 -403.8,4190.4 -36.1,-27 277.6,-2038.2 403.8,-4190.4"
         style="fill:#163356;fill-opacity:1;fill-rule:nonzero;stroke:none"
         id="path70" /><path
         d="m 18983,9739 c -19.6,170.3 7.1,416 30.8,517.1 42.9,199.4 359,122.2 306.5,-73.8 -10.2,6.4 -42.8,-354.9 -20.3,-455.2 296.7,-89 -595.7,-381.7 -317,11.9"
         style="fill:#f99370;fill-opacity:1;fill-rule:nonzero;stroke:none"
         id="path72" /><path
         d="m 19323.3,10198.8 c -0.7,-5.5 -1.7,-11.1 -3,-16.5 -7.4,4.9 -27.9,-194.5 -28.1,-339.1 -136,-61.9 -287.6,-34.7 -315.3,-29 -3,183.3 13.9,350.3 40.8,455.1 55.1,177.5 333.8,112.8 305.6,-70.5"
         style="fill:#e57d61;fill-opacity:1;fill-rule:nonzero;stroke:none"
         id="path74" /><path
         d="m 19534.2,10273.2 c -45.1,-136.3 -117.6,-286.3 -243,-361.1 h -0.1 c -50.9,-30 -108.6,-44.7 -168.3,-46.8 -334.7,-45.2 -664.5,410.6 -363.3,637.4 49.7,35.4 93.2,86.8 119.6,135.5 268.4,517.5 818.9,111.3 655.1,-365"
         style="fill:#f99370;fill-opacity:1;fill-rule:nonzero;stroke:none"
         id="path76" /><path
         d="M 18402.1,9018.7 18264.3,8513 c -295.2,-90.7 -609.9,-70.2 -887.6,100.2 305.2,-172.4 724.7,-75.1 790.9,26.1 69.6,107.2 225,363.9 234.5,379.4"
         style="fill:#7640cc;fill-opacity:1;fill-rule:nonzero;stroke:none"
         id="path78" /><path
         d="m 20021.6,7334.1 c -32,-38.9 -66.1,-77.8 -102.2,-117 0,0 -175.8,-33 -313.5,150.2 561.5,1190.4 -522.6,1301.5 -305.9,2359.9 724.3,-85.6 1732,-1166.6 721.6,-2393.1"
         style="fill:#9358e0;fill-opacity:1;fill-rule:nonzero;stroke:none"
         id="path80" /><path
         d="m 19014.3,10445.2 c -8.9,26.4 32.7,39.7 40.8,13.1 8.9,-26.3 -32.7,-39.7 -40.8,-13.1"
         style="fill:#c16256;fill-opacity:1;fill-rule:nonzero;stroke:none"
         id="path82" /><path
         d="m 18841.1,10503.7 c -8.9,26.4 32.8,39.8 40.9,13.2 8.9,-26.4 -32.7,-39.8 -40.9,-13.2"
         style="fill:#c16256;fill-opacity:1;fill-rule:nonzero;stroke:none"
         id="path84" /><path
         d="m 19534.2,10273.2 c -45.1,-136.3 -117.6,-286.3 -243,-361.1 h -0.1 c -10.4,-6.1 -21.2,-11.6 -32.2,-16.5 97.5,70 175,241.1 175,241.1 l 4.6,154.7 c -113.6,159.3 -30.3,304.6 -30.3,304.6 -237.2,-27.2 -291.2,125.1 -291.2,125.1 -73.2,2.3 -142.9,52.9 -142.9,52.9 326.3,327 701.5,-142.4 560.1,-500.8"
         style="fill:#e57d61;fill-opacity:1;fill-rule:nonzero;stroke:none"
         id="path86" /><path
         d="m 18892.7,10307.7 c 14,-4.4 25.9,15.1 7.7,16.7 -28.5,-5.3 -90.8,24 -56.4,38.2 49.3,16.8 126.3,129.7 81.3,109.5 -0.5,-0.8 -43.2,-79 -86.7,-94.2 -59.5,-29.5 12.9,-70.3 54.1,-70.2"
         style="fill:#c16256;fill-opacity:1;fill-rule:nonzero;stroke:none"
         id="path88" /><path
         d="m 20021.6,7334.1 c -32,-38.9 -66.1,-77.8 -102.2,-117 0,0 -179,-25 -316.7,158.2 20.2,49.1 42.6,81 59.8,129.9 0,0 106.4,-119.1 359.1,-171.1"
         style="fill:#7640cc;fill-opacity:1;fill-rule:nonzero;stroke:none"
         id="path90" /><path
         d="m 19932.1,7193.6 c 37.9,-11.4 77.8,33.5 26.3,46.5 -278.7,-12.1 -352.9,171.8 -356,179.7 -120.8,68 27.7,-242.9 329.7,-226.2"
         style="fill:#163356;fill-opacity:1;fill-rule:nonzero;stroke:none"
         id="path92" /><path
         d="m 18167.4,7226.1 c 0,0 54.6,-234.5 492.1,-350.1 125.3,-33.2 197.7,-16.8 216,70.1 9.3,43.6 33.1,119.5 76.9,147.7 0,0 97.9,-42.3 134.8,-102.3 81,-131.5 203,-12 262.3,125.6 73.5,170.2 309.1,344 349.8,486.8 l -1531.9,-377.8"
         style="fill:#f4d4be;fill-opacity:1;fill-rule:nonzero;stroke:none"
         id="path94" /><path
         d="m 19950,7516 c -14.3,-25.2 -22.8,-21.2 -37.4,-6.6 -392.9,293.5 -533.6,-347.8 -957.1,-359.3 -431,-42.6 -670.8,-67 -788.2,76.1 -205,317.6 121.1,1737.8 384.7,2081.7 115.6,178.8 320.5,338.1 430.8,430.9 -2.3,-9.3 -61,-253.5 317.2,-11.6 19,-8.1 138.9,-125 131.4,-187.6 C 19450.6,9252 20132.8,7839 19950,7516"
         style="fill:#9358e0;fill-opacity:1;fill-rule:nonzero;stroke:none"
         id="path96" /><path
         d="m 18858.6,11005 c 0,0 110.9,30.6 224.6,-14.1 13,43.1 39.5,82.9 82.7,114.4 18.5,-52.4 44.8,-102.7 74.8,-149.6 10.3,98.5 71,178.4 71,178.4 16.3,-94.3 146.7,-162.2 208.2,-264.4 0,0 347.8,-119.2 99.5,-424.6 v 0 c -10.2,-113 -65.4,-227.3 -65.4,-227.3 -182.5,166.7 -143.2,367.1 -60.2,419.2 -148.8,-52.7 -281.4,9.8 -356.2,108.6 -110.7,18.3 -245.9,78.6 -279,259.4"
         style="fill:#8c4225;fill-opacity:1;fill-rule:nonzero;stroke:none"
         id="path98" /><path
         d="m 19722.5,7425.7 -86.2,17.9 c 344.5,775.5 -60.6,1103.3 -274.9,1540.2 496.9,-575 572.1,-890.3 361.1,-1558.1"
         style="fill:#7640cc;fill-opacity:1;fill-rule:nonzero;stroke:none"
         id="path100" /><path
         d="m 19611.7,10188.2 c -57.1,-153.1 -249.5,-79 -189,72.8 57,153.1 249.4,79 189,-72.8"
         style="fill:#f99370;fill-opacity:1;fill-rule:nonzero;stroke:none"
         id="path102" /><path
         d="m 19557.2,10163.4 c 35.2,36.8 35.2,98.6 19.1,115.8 -29.2,30 -84.6,26.5 -84.7,9.1 7.5,-17.6 45.1,11.1 72,-19.1 29,-22.8 -29,-96.5 -6.4,-105.8"
         style="fill:#c16256;fill-opacity:1;fill-rule:nonzero;stroke:none"
         id="path104" /><path
         d="m 19484.2,10186.6 c 12.4,0.9 32.6,57.1 93.9,53.4 4.4,-0.5 8.4,2.9 8.8,7.4 -40,40.4 -138.9,-61.6 -102.7,-60.8"
         style="fill:#c16256;fill-opacity:1;fill-rule:nonzero;stroke:none"
         id="path106" /><path
         d="m 19416.3,9706.4 c 2.1,-144.3 -368.1,-271.6 -389,-271.8 l -44.4,131.3 c -57,-14.1 -107.1,-93.8 -107.1,-93.8 -164.2,156.4 -9.8,292.7 107.1,266.9 0,0 0,-0.1 -0.1,-0.2 -2.3,-9.3 -28.1,-223.4 315.8,-4.2 44.3,20.5 117.7,-28.2 117.7,-28.2"
         style="fill:#f4d4be;fill-opacity:1;fill-rule:nonzero;stroke:none"
         id="path108" /><path
         d="m 18807.7,2979.3 c 0.3,0.5 -48.5,-18 -115.9,-30.9 0,0 188.7,2812 216.8,3187.2 28.1,375.3 146.3,438.4 146.3,438.4 0,0 -250.3,-3534 -247.2,-3594.7"
         style="fill:#163356;fill-opacity:1;fill-rule:nonzero;stroke:none"
         id="path110" /><path
         d="m 18815.1,3115.6 c -5,-81.1 -7.8,-129.6 -7.4,-136.3 -133.6,-44.7 -402.2,-98.7 -552.5,9.6 0,0 -3.8,44.6 -11.6,126.7 0,0 262.3,-121.1 571.5,0"
         style="fill:#163356;fill-opacity:1;fill-rule:nonzero;stroke:none"
         id="path112" /><path
         d="m 20101.5,2972.5 c 0,0 -375.5,-91.3 -569,6.8 0,0 -8,48.8 -21.9,136.3 0,0 264.6,-70.4 595.6,3.8 1.4,-85.3 -5.9,-139.9 -4.7,-146.9"
         style="fill:#163356;fill-opacity:1;fill-rule:nonzero;stroke:none"
         id="path114" /><path
         d="m 17135.1,9218.8 c -0.5,-115.3 -157.3,-208.1 -157.3,-208.1 -17.6,26.5 -35.1,54.6 -51.7,83.2 l 111.3,180.4 c 33.6,-18.6 66.1,-40 97.7,-55.5"
         style="fill:#7640cc;fill-opacity:1;fill-rule:nonzero;stroke:none"
         id="path116" /><path
         d="m 16874,9598.7 c -43.1,-27.7 27.6,-112.9 22.2,-159.3 -71.4,32.5 -134,86 -134.5,85.9 -61.2,75.5 -118.3,154.1 -171.7,235.4 -132,60.4 77.3,-238.3 93,-275.1 -0.3,-0.3 -0.7,-0.6 -1,-1 -79.2,64 -155.1,132.4 -224.7,206.8 -148.4,30.9 150.8,-242.1 178,-274.6 -0.1,-0.2 -0.2,-0.4 -0.3,-0.6 -84.6,47.5 -163.6,105.4 -235.3,171 -152.2,17.9 172.9,-236 209,-258.8 0,-0.4 -0.1,-0.8 -0.2,-1.1 -64.4,8.5 -197,127.7 -239.5,98.9 -40.4,-65.4 395,-299.8 547.5,-329.3 54.9,-15.1 134.1,123 120.7,177.2 -12.6,50.9 -47.7,113.2 -59.8,136 -19,53.1 -40.2,184.4 -103.4,188.6"
         style="fill:#f99370;fill-opacity:1;fill-rule:nonzero;stroke:none"
         id="path118" /><path
         d="m 17291.5,8671.4 c 4.5,-3.5 9,-7 13.5,-11.1 -4.5,3.5 -8.5,6.6 -13,9.6 v 0.5 c -0.5,0.5 -0.5,1 -0.5,1"
         style="fill:#395b96;fill-opacity:1;fill-rule:nonzero;stroke:none"
         id="path120" /><path
         d="m 19138.3,10479.6 c 1.2,0.4 2.4,1 3.4,1.9 4.5,3.5 5.2,10 1.6,14.5 -1.8,2.2 -45.4,55.6 -118.5,52.8 -5.7,-0.2 -10.2,-5 -10,-10.7 0.3,-5.7 5.1,-10.2 10.8,-9.9 62.4,2.3 101.2,-44.7 101.6,-45.2 2.7,-3.4 7.2,-4.6 11.1,-3.4"
         style="fill:#c16256;fill-opacity:1;fill-rule:nonzero;stroke:none"
         id="path122" /><path
         d="m 18857.5,10573.9 c 1.8,-0.1 3.7,0.2 5.4,1 32.9,16.3 69.5,-6 69.9,-6.3 4.8,-3 11.2,-1.5 14.2,3.3 3.1,4.8 1.6,11.2 -3.2,14.2 -1.9,1.2 -46.7,28.9 -90.1,7.4 -5.1,-2.6 -7.2,-8.8 -4.6,-13.9 1.6,-3.3 4.9,-5.4 8.4,-5.7"
         style="fill:#c16256;fill-opacity:1;fill-rule:nonzero;stroke:none"
         id="path124" /><path
         d="m 18955.3,10268.3 c -1.8,-0.4 -3.5,-1.2 -5,-2.5 -27.2,-24.5 -68.6,-12.8 -69,-12.6 -5.4,1.6 -11.2,-1.5 -12.8,-7 -1.6,-5.5 1.5,-11.2 6.9,-12.9 2.2,-0.6 52.7,-15.2 88.8,17.1 4.2,3.8 4.6,10.4 0.7,14.6 -2.5,2.8 -6.1,3.9 -9.6,3.3"
         style="fill:#c16256;fill-opacity:1;fill-rule:nonzero;stroke:none"
         id="path126" /><path
         d="m 6358.67,9428.8 c 131.69,851.1 622.89,650.6 622.89,650.6 0.02,0 270.16,140.4 493.55,-201.4 354.17,-541.8 768.38,-406.4 865.45,-894.6 95.11,-478.3 -555.68,-1021.9 -1330.81,-668.5 0,0 -783.66,257.1 -651.08,1113.9"
         style="fill:#662948;fill-opacity:1;fill-rule:nonzero;stroke:none"
         id="path128" /><path
         d="m 8922.39,8030.6 c 33.44,-28.5 -46.17,-95.9 -50.29,-135.8 69.04,14.8 134.32,49.7 134.76,49.5 68.38,54.6 133.68,112.7 196.38,173.8 129.1,31.9 -115.08,-197 -134.91,-223.8 0.25,-0.3 0.48,-0.7 0.72,-1.1 81.96,40.9 161.81,86.4 237.32,138.3 139.73,3.4 -181.47,-186.4 -209.42,-206.9 0.05,-0.2 0.09,-0.4 0.14,-0.6 83.59,25.4 164.12,61.1 239.82,104.8 141.09,-9.1 -200.14,-176.5 -233.65,-187.1 -0.02,-0.3 -0.03,-0.6 -0.05,-1 68.57,10.4 135.79,29.6 201.48,52 130.21,-27.3 -185.57,-130.2 -217.32,-136.5 -19.7,-15.4 -143.22,-50.3 -299.26,-58.5 -51.13,-2.6 -94.07,134 -71.79,179.1 20.88,42.3 63.76,90.2 78.75,108 23.6,39.3 76.08,158.9 127.32,145.8"
         style="fill:#f99370;fill-opacity:1;fill-rule:nonzero;stroke:none"
         id="path130" /><path
         d="m 6922.75,8435.5 c 127.37,-94 195.07,-237 293.88,-368.9 116.04,-163.7 248.65,-338.4 418.84,-454.1 361.5,-234.4 812.46,-141.6 1192.79,-17.1 137.98,42.6 75.7,259.3 -63.77,221.6 -325.35,-73.6 -761.38,-140 -991.74,155.9 -222.21,256.8 -290.91,617.4 -540.51,857.6 -271.45,249.2 -617.08,-190.3 -309.49,-395"
         style="fill:#f99370;fill-opacity:1;fill-rule:nonzero;stroke:none"
         id="path132" /><path
         d="m 7085.85,7982.5 c 41.04,-114 96.36,-203.3 157.67,-272.6 116.3,-131.5 254.43,-191.1 358.23,-211.1 3.51,-0.7 6.93,-1.4 10.34,-2 158.18,-27.4 496.25,362.5 313.15,496.3 -182.99,133.6 -151.25,214.6 -369.5,536.4 -218.25,321.8 -402.28,379.9 -402.28,379.9 2.59,-248.7 -188.98,-589 -67.61,-926.9"
         style="fill:#ce4abf;fill-opacity:1;fill-rule:nonzero;stroke:none"
         id="path134" /><path
         d="M 4157.27,3783.6 4038.01,4518 c 36.92,18.9 220.4,11.5 284.61,29.2 41.06,3.9 556.99,147.6 610.72,160.8 l 68.47,-421.7 -553.66,-20 c -65.67,-2.4 -120.26,-51.1 -130.47,-116 -29.64,-143.8 20.56,-294.3 -71.86,-398.4 -31.68,-27.9 -81.78,-10 -88.55,31.7"
         style="fill:#f99370;fill-opacity:1;fill-rule:nonzero;stroke:none"
         id="path136" /><path
         d="m 4105.02,4551.7 c -24.32,-7 -47.3,-17.7 -67.02,-33.7 l 120.24,-740.5 c 5.85,-36 45.53,-56.3 77.57,-38.8 74.83,41 174.23,157.3 136.66,501.5 0,0 -53.43,110.5 -49.86,307 0,0 -119.02,33.1 -217.59,4.5"
         style="fill:#1d3f70;fill-opacity:1;fill-rule:nonzero;stroke:none"
         id="path138" /><path
         d="m 4352.2,3877.5 c -26.89,7.5 -24.29,49.2 -114.03,71.2 -8.18,1.8 -13.31,10 -11.44,18.2 33.16,46.6 190.66,-86.5 125.47,-89.4"
         style="fill:#e8c0a6;fill-opacity:1;fill-rule:nonzero;stroke:none"
         id="path140" /><path
         d="m 4375.5,3987.4 c -4.63,0 -9.19,2.1 -12.17,6.1 v 0 c -0.47,0.7 -47.77,62.4 -128.74,73.8 -19.55,2.4 -15.26,33.2 4.21,30.1 93.89,-13.2 146.68,-82.7 148.88,-85.7 7.59,-9.5 -0.13,-24.6 -12.18,-24.3"
         style="fill:#e8c0a6;fill-opacity:1;fill-rule:nonzero;stroke:none"
         id="path142" /><path
         d="m 4379.97,4124.7 c -21.04,3.7 -50.94,59.2 -151.13,78 -19.4,3.1 -14.18,33.7 5.26,29.9 100.43,-21.6 196.43,-91.3 145.87,-107.9"
         style="fill:#e8c0a6;fill-opacity:1;fill-rule:nonzero;stroke:none"
         id="path144" /><path
         d="m 4236.95,3739.3 -131.93,812.4 c -24.32,-7 -47.3,-17.7 -67.02,-33.7 l 120.24,-740.5 c 5.88,-36.5 46.69,-56.7 78.71,-38.2"
         style="fill:#395b96;fill-opacity:1;fill-rule:nonzero;stroke:none"
         id="path146" /><path
         d="m 7243.52,7709.9 c 116.3,-131.5 254.43,-191.1 358.23,-211.1 -65.34,133.3 25.23,191.4 41.97,409.8 17.58,228.8 -182.47,467 -182.47,467 l -217.73,-665.7"
         style="fill:#a523a2;fill-opacity:1;fill-rule:nonzero;stroke:none"
         id="path148" /><path
         d="m 7436.03,2534.8 -743.13,8.2 c -12.26,39.7 26.31,218.9 19.89,285.3 -0.17,27.9 -7.33,180.8 -9.9,208.6 l 55.63,419.3 327.58,-3.6 -74.98,-548.7 c -8.89,-65.1 29.74,-127.2 91.95,-148.4 136.54,-53.6 292.42,-30.3 379.81,-138 22.69,-36.1 -4.14,-83.2 -46.85,-82.7"
         style="fill:#f99370;fill-opacity:1;fill-rule:nonzero;stroke:none"
         id="path150" /><path
         d="m 6671.1,2614.7 c 2.75,-25.1 9.43,-49.6 21.79,-71.7 l 750.36,-8.3 c 36.49,-0.4 63.29,35.2 51.57,69.8 -27.61,80.7 -125.24,198.5 -470.91,220.4 0,0 -118.06,-33.7 -311.13,3.4 0,0 -53.01,-111.6 -41.68,-213.6"
         style="fill:#1d3f70;fill-opacity:1;fill-rule:nonzero;stroke:none"
         id="path152" /><path
         d="m 7274.22,2633.4 c -10.55,-0.2 -18.35,11.3 -14.01,21.1 33.51,80.1 94.71,104.2 97.3,105.2 18.29,7.2 29.36,-21.6 10.89,-28.4 -2.31,-0.9 -51.97,-21.2 -80.15,-88.6 -2.44,-5.8 -8.08,-9.3 -14.03,-9.3"
         style="fill:#e8c0a6;fill-opacity:1;fill-rule:nonzero;stroke:none"
         id="path154" /><path
         d="m 7156.24,2648.9 c -10.07,-0.1 -17.76,10.3 -14.47,19.9 27.81,100.9 159.82,175.3 123.67,104.9 -0.89,-0.5 -69.73,-36.5 -94.73,-114.2 -2.07,-6.5 -8.04,-10.6 -14.47,-10.6"
         style="fill:#e8c0a6;fill-opacity:1;fill-rule:nonzero;stroke:none"
         id="path156" /><path
         d="m 7022,2666.9 c -10.27,-0.1 -18.01,10.7 -14.3,20.4 32.88,91.2 105.02,138.6 108.07,140.6 16.37,10.9 33.24,-15 16.51,-25.5 -0.98,-0.7 -66.77,-44.4 -95.99,-125.4 -2.22,-6.2 -8.07,-10.1 -14.29,-10.1"
         style="fill:#e8c0a6;fill-opacity:1;fill-rule:nonzero;stroke:none"
         id="path158" /><path
         d="m 7494.39,2605.7 -823.29,9 c 2.75,-25.1 9.43,-49.6 21.79,-71.7 l 750.36,-8.3 c 37,-0.4 63.91,36.3 51.14,71"
         style="fill:#395b96;fill-opacity:1;fill-rule:nonzero;stroke:none"
         id="path160" /><path
         d="m 4444.24,4615.8 c 0,0 0,-209.3 57.01,-408.8 1426.54,118.9 2018.71,304.5 2130.13,1688.8 0,0 487.42,-932.2 21.95,-2704.9 h -0.13 c -13.44,-52 -27.47,-103.1 -42.46,-155.2 0,0 183.07,-149.7 436.11,-100.6 315.46,599.5 1011.57,2042.6 410.48,3930.5 -358.25,414.5 -1079.31,456.6 -1537.19,248.6 -368.49,-947.6 278.48,-2113.4 -1475.9,-2498.4"
         style="fill:#3a72aa;fill-opacity:1;fill-rule:nonzero;stroke:none"
         id="path162" /><path
         d="m 4444.24,4615.8 c 0,0 0,-209.3 57.01,-408.8 0,0 64.28,4.5 168.25,15.2 -65.35,160.1 -63.47,433.1 -63.47,433.1 -50.93,-14.6 -106.24,-26 -161.79,-39.5"
         style="fill:#23659b;fill-opacity:1;fill-rule:nonzero;stroke:none"
         id="path164" /><path
         d="m 6610.74,3035.7 c 0,0 183.07,-149.7 436.11,-100.6 0,0 23.5,45.9 68.21,132.1 0,0 -299.16,-28.2 -461.73,123.7 h -0.13 c -13.23,-51 -27.38,-102.7 -42.46,-155.2"
         style="fill:#23659b;fill-opacity:1;fill-rule:nonzero;stroke:none"
         id="path166" /><path
         d="m 6653.2,3190.9 c -4.63,-18 -9.39,-35.9 -14.29,-54.1 h 90.61 c 316.95,949.5 372.31,2513.2 -98.14,2759 0,0 487.42,-932.2 21.95,-2704.9 h -0.13"
         style="fill:#23659b;fill-opacity:1;fill-rule:nonzero;stroke:none"
         id="path168" /><path
         d="m 6967.38,2981 c 249.54,568.9 416.02,1124.4 494.81,1651.1 63.15,422.2 70.45,826.9 21.67,1203.1 -83.38,643 -299.12,975.5 -308.26,989.3 l -60.39,-39.9 30.2,19.9 -30.22,-19.9 c 2.17,-3.2 217.05,-335.7 297.57,-963.9 74.39,-580.5 46.02,-1539.3 -511.67,-2810.6 l 66.29,-29.1"
         style="fill:#23659b;fill-opacity:1;fill-rule:nonzero;stroke:none"
         id="path170" /><path
         d="m 4560.33,4258.2 c 509.32,49.1 889.65,136.8 1162.72,268.2 271.31,130.5 455.35,313 562.66,558 268.77,613.5 169.96,1844.3 165.62,1896.4 l -72.12,-6 c 1.04,-12.5 101.61,-1264.7 -159.78,-1861.4 -202.33,-461.8 -685.01,-688.7 -1666.04,-783.1 l 6.94,-72.1"
         style="fill:#23659b;fill-opacity:1;fill-rule:nonzero;stroke:none"
         id="path172" /><path
         d="m 5895.6,7046.4 c 318.64,-151.2 1060.78,-468.3 1573.71,-218.9 28.45,59.8 32.9,152.4 11.33,218.8 -199.12,682.7 333.19,771.8 -28.87,1344.6 -81.03,127.4 -234.19,399.6 -298.26,518.5 -59.93,-143.6 -235.75,-7.7 -306.75,74.5 -52.21,-2.4 -619.76,-50.1 -847.35,-1263 -22.94,-123 -337.05,-484.7 -103.81,-674.5"
         style="fill:#ce4abf;fill-opacity:1;fill-rule:nonzero;stroke:none"
         id="path174" /><path
         d="m 6973.77,7271.8 c 7.43,-43.3 -96.87,-44.1 -125.57,-72.1 62.5,-32.8 134.99,-47.8 135.2,-48.2 87.45,-2 174.83,0.9 262.12,7.6 119.54,-58.2 -214.56,-77.6 -246.95,-85.4 -0.04,-0.5 -0.11,-0.9 -0.15,-1.3 89.14,-21.1 179.6,-37.3 270.83,-45.8 109.46,-86.9 -258.73,-26.9 -293.36,-24.8 -0.1,-0.2 -0.2,-0.4 -0.3,-0.6 80.48,-34 165.18,-58.2 251.34,-73 102.51,-97.4 -266.78,-7.4 -299.26,5.9 -0.24,-0.2 -0.47,-0.5 -0.7,-0.7 59.33,-35.9 123.22,-64.3 188.04,-89.1 82.47,-104.4 -225.92,18.8 -254.35,34.3 -24.95,0.8 -142.19,53.1 -267.25,146.8 -40.98,30.7 13.58,163.1 59.57,183.5 43.13,19.1 106.76,28.5 129.65,32.5 43.32,15.1 160.21,73.3 191.14,30.4"
         style="fill:#f99370;fill-opacity:1;fill-rule:nonzero;stroke:none"
         id="path176" /><path
         d="m 6428.39,8900.4 c -304.89,-228.7 -618.62,-581.5 -730.27,-947.2 -176.71,-504.8 457.2,-801.2 864.96,-920.5 79.74,-30.3 172.69,-46.7 205.7,54.5 23.4,92.5 -53.47,129.4 -125.35,156.5 -134.08,62.1 -270.9,140.7 -381.83,234.4 -129.53,106.5 -233.68,252.5 -132.69,406.3 120.7,247.2 327.77,459.1 562.13,595 274.62,173 13.33,591.5 -262.65,421"
         style="fill:#f99370;fill-opacity:1;fill-rule:nonzero;stroke:none"
         id="path178" /><path
         d="m 6843.64,8983.8 c 0,0 -455.5,83.6 -789.86,-330 -334.35,-413.5 -607.79,-938.4 -386.06,-1075.7 127.04,-78.6 140.71,128.8 454,67.5 244.42,-47.9 196.8,406.8 564.39,787.4 202.26,209.4 209.38,476.4 157.53,550.8"
         style="fill:#ce4abf;fill-opacity:1;fill-rule:nonzero;stroke:none"
         id="path180" /><path
         d="m 6148.52,7621.8 c 39.24,0 171.83,20.4 260.09,281.9 95.93,284.3 263.28,483.6 264.96,485.6 7.39,8.7 6.32,21.7 -2.39,29.1 -8.72,7.4 -21.76,6.3 -29.15,-2.4 -7.07,-8.3 -174.16,-207.4 -272.6,-499.1 -90.34,-267.6 -224.73,-253.8 -226.04,-253.6 -11.39,1.4 -21.65,-6.4 -23.22,-17.6 -1.57,-11.2 6.04,-21.6 17.25,-23.3 0.94,-0.1 4.83,-0.6 11.1,-0.6"
         style="fill:#a523a2;fill-opacity:1;fill-rule:nonzero;stroke:none"
         id="path182" /><path
         d="m 7152.97,8921.9 c 0,0 87.55,-31.8 125.5,-86.1 0,0 -10.99,-77.3 -67.79,-105.4 -64.08,-31.7 -129.29,85.8 -129.29,85.8 0,0 -13.98,-102.5 -93.17,-95.5 -79.19,7.1 -229.68,123.2 -277.19,269.4 0,0 96.26,16.6 132.61,-6.3 l 309.33,-61.9"
         style="fill:#ffd2d2;fill-opacity:1;fill-rule:nonzero;stroke:none"
         id="path184" /><path
         d="m 7165.07,9009.1 -12.1,-87.2 c -31.45,-137.4 -269.06,-4.9 -306.21,62 0,0 11.17,50.2 15.05,95.2 l 303.26,-70"
         style="fill:#f99370;fill-opacity:1;fill-rule:nonzero;stroke:none"
         id="path186" /><path
         d="m 6869.59,9398.9 c 0.11,-5.4 0.42,-10.9 1.04,-16.3 7.7,3.9 4.6,-192.1 -11.98,-332.6 124.9,-75.7 275.29,-66.9 302.9,-64.6 24.11,177.7 27.1,341.7 13.09,446.7 -32.98,178.6 -311.13,148.1 -305.05,-33.2"
         style="fill:#e57d61;fill-opacity:1;fill-rule:nonzero;stroke:none"
         id="path188" /><path
         d="m 6667.48,9506.3 c 24.32,-138.2 73.35,-293.6 184.1,-383.7 h 0.18 c 44.74,-36.1 98.95,-58.6 156.21,-69.1 321.51,-87.9 699.71,298.8 441.77,565.6 -93.03,83.4 -114.66,233.4 -189.06,316.7 -108.66,152.9 -342.07,141.5 -466.37,13.8 -112.33,-115.5 -149.05,-273 -126.83,-443.3"
         style="fill:#f99370;fill-opacity:1;fill-rule:nonzero;stroke:none"
         id="path190" /><path
         d="m 7195.04,9599.4 c 12.33,24.2 -26.06,43 -37.68,18.4 -12.33,-24.2 26.06,-43 37.68,-18.4"
         style="fill:#c16256;fill-opacity:1;fill-rule:nonzero;stroke:none"
         id="path192" /><path
         d="m 7370.94,9631.5 c 12.33,24.3 -26.06,43.1 -37.67,18.5 -12.34,-24.3 26.06,-43.1 37.67,-18.5"
         style="fill:#c16256;fill-opacity:1;fill-rule:nonzero;stroke:none"
         id="path194" /><path
         d="m 7319.02,9449.1 c -12.91,-0.2 -41.25,-5.5 -40.76,12 1.28,4.2 5.75,6.6 9.91,5.3 26.74,-8.1 64.23,5.8 69.2,17.9 1.74,4.2 -4.03,8.3 -9.18,11 -44.81,21.7 -104.24,146 -63.17,117.5 0.31,-0.8 30.63,-82.5 70.53,-103.4 45.07,-30.2 -1.11,-54.7 -36.53,-60.3"
         style="fill:#c16256;fill-opacity:1;fill-rule:nonzero;stroke:none"
         id="path196" /><path
         d="m 6667.48,9506.3 c 24.32,-138.2 73.35,-293.6 184.1,-383.7 h 0.18 c -61.74,74.4 -101.99,242.3 -101.99,242.3 l 27.59,75.3 c 478.86,162.2 432.11,549.4 432.11,549.4 -294.79,233.6 -609.79,-167 -541.99,-483.3"
         style="fill:#e57d61;fill-opacity:1;fill-rule:nonzero;stroke:none"
         id="path198" /><path
         d="m 7162.28,10025.5 c 0,0 39.71,-384.1 -388.58,-546.7 l -155.75,83 c -154.98,293.5 116.25,735.2 544.33,463.7"
         style="fill:#662948;fill-opacity:1;fill-rule:nonzero;stroke:none"
         id="path200" /><path
         d="m 6653.61,10131.8 c 105.03,-361.3 525.86,-245.8 431.71,118.4 -105.03,361.3 -525.85,245.8 -431.71,-118.4"
         style="fill:#662948;fill-opacity:1;fill-rule:nonzero;stroke:none"
         id="path202" /><path
         d="m 6580.49,9435.1 c 33.54,-156.3 230.26,-111.7 193.2,43.7 -33.54,156.2 -230.26,111.7 -193.2,-43.7"
         style="fill:#f99370;fill-opacity:1;fill-rule:nonzero;stroke:none"
         id="path204" /><path
         d="m 6631.86,9403.3 c -33.08,33.7 -21.21,102.7 -4.31,114.8 31.03,25.3 87.22,12.7 83.28,-3.2 -9.76,-15.9 -42.03,17.1 -72.35,-8.3 -31.08,-23.6 11.91,-89.8 -6.62,-103.3"
         style="fill:#c16256;fill-opacity:1;fill-rule:nonzero;stroke:none"
         id="path206" /><path
         d="m 6705.8,9415.5 c -16.24,0.6 -23.03,59.5 -85.47,64.9 -4.38,0.3 -7.74,4 -7.51,8.4 43.29,33.5 122.67,-76.2 92.98,-73.3"
         style="fill:#c16256;fill-opacity:1;fill-rule:nonzero;stroke:none"
         id="path208" /><path
         d="m 6668.29,9374 c -0.01,-23.1 36.31,-22.6 35.63,0.5 0.01,23.2 -36.31,22.6 -35.63,-0.5"
         style="fill:#f4d4be;fill-opacity:1;fill-rule:nonzero;stroke:none"
         id="path210" /><path
         d="m 7279.73,9404.9 h 0.1 z m -38.6,5.4 c -9.03,-6.6 -9.19,-21.8 -0.35,-33.9 4.46,-6.2 10.49,-10.5 16.96,-12.3 5.89,-1.5 11.36,-0.7 15.46,2.2 9.04,6.6 9.2,21.9 0.36,34 v 0 c -4.46,6.1 -10.49,10.4 -16.96,12.2 -1.99,0.5 -3.93,0.8 -5.78,0.8 -3.64,0 -6.96,-1 -9.69,-3 z m 12.56,-61.1 c -9.87,2.6 -18.91,9.1 -25.45,18 -13.86,19 -12.19,44 3.75,55.6 8.01,5.9 18.21,7.5 28.66,4.7 9.87,-2.7 18.91,-9.1 25.45,-18.1 13.86,-19 12.19,-43.9 -3.75,-55.6 -5.44,-4 -11.89,-6 -18.75,-6 -3.24,0 -6.56,0.5 -9.91,1.4"
         style="fill:#c16256;fill-opacity:1;fill-rule:nonzero;stroke:none"
         id="path212" /><path
         d="m 7107.66,9643.2 c 2.43,0 4.82,1.2 6.33,3.3 28.24,39.8 82.89,40.3 83.44,40.3 v 0 c 4.28,0 7.76,3.4 7.77,7.7 0.01,4.3 -3.45,7.8 -7.73,7.8 -0.02,0 -0.04,0 -0.08,0 -3.59,0 -63.39,-0.8 -96.05,-46.8 -2.48,-3.5 -1.65,-8.4 1.84,-10.9 1.36,-0.9 2.93,-1.4 4.48,-1.4"
         style="fill:#c16256;fill-opacity:1;fill-rule:nonzero;stroke:none"
         id="path214" /><path
         d="m 7273.97,9698 c 1.11,0 2.25,0.2 3.32,0.7 48.45,23.1 85.94,0.7 86.33,0.4 3.65,-2.2 8.42,-1 10.66,2.6 2.24,3.6 1.09,8.4 -2.57,10.7 -1.81,1.1 -45.11,26.9 -101.08,0.3 -3.86,-1.8 -5.51,-6.4 -3.68,-10.3 1.33,-2.8 4.12,-4.4 7.02,-4.4"
         style="fill:#c16256;fill-opacity:1;fill-rule:nonzero;stroke:none"
         id="path216" /></g></g></svg>
